# xmcd CD database file
#
# Track frame offsets:
#	150
#	15398
#	25264
#	43987
#	58918
#	81209
#	98128
#	120904
#	147551
#	162000
#	185560
#	200382
#	215220
#
# Disc length: 2986 seconds
#
# Revision: 0
# Processed by: cddbd v1.5.2PL0 Copyright (c) Steve Scherf et al.
# Submitted via: CDex 1.51
#
DISCID=b70ba80d
DTITLE=Double Zero Band - Howlin' at the Moon in New Orleans...
DYEAR=2005
DGENRE=Country
TTITLE0=Old Kentucky Home
TTITLE1=Wheel
TTITLE2=Big Railroad Blues
TTITLE3=Peepin' an Hiden'
TTITLE4=Whiskey in the Jar
TTITLE5=Local Srewball
TTITLE6=Wabash Canonball
TTITLE7=Howlin' at the Moon
TTITLE8=The Last Thing on my Mind
TTITLE9=Down by the Riverside
TTITLE10=Jambalaya Part 1
TTITLE11=Jambalaya Part 2
TTITLE12=Warm and Windy
EXTD=YEAR: 2005
EXTT0=
EXTT1=
EXTT2=
EXTT3=
EXTT4=
EXTT5=
EXTT6=
EXTT7=
EXTT8=
EXTT9=
EXTT10=
EXTT11=
EXTT12=
PLAYORDER=
